<svg xmlns="http://www.w3.org/2000/svg" viewBox="0 0 387.67 637"><defs><style>.cls-1{fill:#71c27e;}.cls-1,.cls-2,.cls-3{stroke:#231f20;stroke-miterlimit:10;}.cls-2{fill:#fff;}.cls-3{fill:#26256a;}</style></defs><g id="Layer_2" data-name="Layer 2"><g id="Layer_1-2" data-name="Layer 1"><path class="cls-1" d="M.5,60.65v515.7C.5,609.57,20,636.5,44,636.5H343.69c24,0,43.48-26.93,43.48-60.15V378.65c0-33.22-19.47-60.15-43.48-60.15H162.12c-24.14,0-43.65-27.2-43.48-60.58l1-196.84C119.84,27.7,100.33.5,76.2.5H44C20,.5.5,27.43.5,60.65Z"/><path class="cls-2" d="M175.16,411.49h92.11c21.76,0,39.41,24.41,39.41,54.53v21.81c0,30.12-17.65,54.53-39.41,54.53H175.16c-21.76,0-39.41-24.41-39.41-54.53V466C135.75,435.9,153.4,411.49,175.16,411.49Z"/><path class="cls-3" d="M143.17,54.5V273.17a28.66,28.66,0,0,0,28.66,28.66H358.5a28.67,28.67,0,0,0,28.67-28.66V252.5a28.68,28.68,0,0,0-28.67-28.67H261.34A28.67,28.67,0,0,1,232.67,195l1-165.66A28.67,28.67,0,0,0,205,.5h-7.83A54,54,0,0,0,143.17,54.5Z"/></g></g></svg>