<svg xmlns="http://www.w3.org/2000/svg" viewBox="0 0 338.13 378.67"><defs><style>.cls-1{fill:#dc4a9b;stroke:#00aeef;stroke-width:3px;}.cls-1,.cls-2{stroke-miterlimit:10;}.cls-2{fill:#70c16c;stroke:#231f20;}.cls-3{font-size:98.79px;fill:#76c698;font-family:Chiller-Regular, Chiller;}.cls-4{fill:#231f20;}</style></defs><g id="Layer_2" data-name="Layer 2"><g id="Layer_1-2" data-name="Layer 1"><path class="cls-1" d="M136.1,107.34c-15.3-3.47-35,1.2-54.61,11.83-41.8,22.68-83.07,72.5-79.81,128.35C6.26,326,95.6,363,100.35,364.86c85.23,33.78,208.2-4.18,232-86.67,20.89-72.42-39.18-163.41-82.4-164.47-19.35-.48-30.29,17.2-60.27,15.14a60.82,60.82,0,0,1-26.67-8C153.87,115.77,146.71,109.75,136.1,107.34Z"/><path class="cls-2" d="M204.35,8.86,163,120.86l26.67,8,14.67-.62s1.33-83.38,40-112.72S204.35,8.86,204.35,8.86Z"/><text class="cls-3" transform="matrix(0.98, 0, 0, 1, 59.12, 260.42)">Fruteria</text><path class="cls-4" d="M99,150c3.22,0,3.23-5,0-5s-3.22,5,0,5Z"/><path class="cls-4" d="M128.35,143.36c3.21,0,3.22-5,0-5s-3.23,5,0,5Z"/><path class="cls-4" d="M140.35,144.69c3.21,0,3.22-5,0-5s-3.23,5,0,5Z"/><path class="cls-4" d="M167,150c3.22,0,3.23-5,0-5s-3.22,5,0,5Z"/><path class="cls-4" d="M217.68,154c3.22,0,3.22-5,0-5s-3.22,5,0,5Z"/><path class="cls-4" d="M248.35,143.36c3.21,0,3.22-5,0-5s-3.23,5,0,5Z"/><path class="cls-4" d="M264.35,148.69c3.21,0,3.22-5,0-5s-3.23,5,0,5Z"/><path class="cls-4" d="M269.68,164.69c3.22,0,3.22-5,0-5s-3.22,5,0,5Z"/><path class="cls-4" d="M236.35,167.36c3.21,0,3.22-5,0-5s-3.23,5,0,5Z"/><path class="cls-4" d="M101.68,167.36c3.22,0,3.22-5,0-5s-3.22,5,0,5Z"/><path class="cls-4" d="M63,162.36H60.35a1.8,1.8,0,0,0-1,.21,1.82,1.82,0,0,0-.8.52,1.85,1.85,0,0,0-.52.8,1.89,1.89,0,0,0-.21,1l.09.66a2.5,2.5,0,0,0,.64,1.1,2.6,2.6,0,0,0,1.77.74H63a1.9,1.9,0,0,0,1-.22,2.54,2.54,0,0,0,1.53-2.28l-.09-.67a2.41,2.41,0,0,0-.64-1.1,2.59,2.59,0,0,0-1.77-.73Z"/><path class="cls-4" d="M39,211.36c3.22,0,3.23-5,0-5s-3.22,5,0,5Z"/><path class="cls-4" d="M23,235.36c3.22,0,3.23-5,0-5s-3.22,5,0,5Z"/><path class="cls-4" d="M23,267.36c3.22,0,3.23-5,0-5s-3.22,5,0,5Z"/><path class="cls-4" d="M33.68,288.69c3.22,0,3.22-5,0-5s-3.22,5,0,5Z"/><path class="cls-4" d="M49.68,312.69c3.22,0,3.22-5,0-5s-3.22,5,0,5Z"/><path class="cls-4" d="M319,270c3.22,0,3.23-5,0-5s-3.22,5,0,5Z"/><path class="cls-4" d="M309.68,288.69c3.22,0,3.22-5,0-5s-3.22,5,0,5Z"/><path class="cls-4" d="M240.35,312.69c3.21,0,3.22-5,0-5s-3.23,5,0,5Z"/><path class="cls-4" d="M175,328.69c3.22,0,3.23-5,0-5s-3.22,5,0,5Z"/><path class="cls-4" d="M155,343.36c3.22,0,3.23-5,0-5s-3.22,5,0,5Z"/><path class="cls-4" d="M220.35,363.36c3.21,0,3.22-5,0-5s-3.23,5,0,5Z"/><path class="cls-4" d="M316.35,220.69c3.21,0,3.22-5,0-5s-3.23,5,0,5Z"/><path class="cls-4" d="M304.35,198c3.21,0,3.22-5,0-5s-3.23,5,0,5Z"/><path class="cls-4" d="M297.68,212.69c3.22,0,3.22-5,0-5s-3.22,5,0,5Z"/><path class="cls-4" d="M195,196.69c3.22,0,3.23-5,0-5s-3.22,5,0,5Z"/><path class="cls-4" d="M97.68,310c3.22,0,3.22-5,0-5s-3.22,5,0,5Z"/><path class="cls-4" d="M109.68,327.36c3.22,0,3.22-5,0-5s-3.22,5,0,5Z"/><path class="cls-4" d="M60.35,174c3.21,0,3.22-5,0-5s-3.23,5,0,5Z"/><path class="cls-4" d="M52.35,192.69c3.21,0,3.22-5,0-5s-3.23,5,0,5Z"/><path class="cls-4" d="M59,195.36c3.22,0,3.23-5,0-5s-3.22,5,0,5Z"/><path class="cls-4" d="M293.68,326c3.22,0,3.22-5,0-5s-3.22,5,0,5Z"/><path class="cls-4" d="M272.35,334c3.21,0,3.22-5,0-5s-3.23,5,0,5Z"/><path class="cls-4" d="M143,331.36c3.22,0,3.23-5,0-5s-3.22,5,0,5Z"/><path class="cls-4" d="M153.68,342c3.22,0,3.22-5,0-5s-3.22,5,0,5Z"/></g></g></svg>