<svg xmlns="http://www.w3.org/2000/svg" viewBox="0 0 251.18 325.55"><defs><style>.cls-1{fill:#e87825;}.cls-1,.cls-2,.cls-3,.cls-4,.cls-5{stroke:#231f20;stroke-miterlimit:10;}.cls-2{fill:#dee45d;}.cls-3{fill:#fff;}.cls-4{fill:#87d2d7;}.cls-5{fill:#73c8b5;}</style></defs><g id="Layer_2" data-name="Layer 2"><g id="Layer_1-2" data-name="Layer 1"><path class="cls-1" d="M74.27,317V142.61a8.12,8.12,0,0,1,8.17-8.06h51.24a8.16,8.16,0,0,1,7.95,6.16l12.15,49.44a8.22,8.22,0,0,0,15.15,1.92l29-53.27a8.18,8.18,0,0,1,7.2-4.25H242.5a8.13,8.13,0,0,1,8.18,8.06V317a8.12,8.12,0,0,1-8.18,8.05H223.79a8.12,8.12,0,0,1-8.18-7.94l-1.16-83.86c-.11-7.9-10.5-10.94-15-4.38l-21.17,31.06a8.19,8.19,0,0,1-6.79,3.57H143.28a8.19,8.19,0,0,1-7.13-4.12L128,244.94c-4.17-7.35-15.56-4.25-15.31,4.17l2,67.65a8.12,8.12,0,0,1-8.18,8.29h-24A8.11,8.11,0,0,1,74.27,317Z"/><path class="cls-2" d="M66.14,313.05V138.66a8.12,8.12,0,0,1,8.17-8.06h51.24a8.16,8.16,0,0,1,8,6.17l12.15,49.44a8.22,8.22,0,0,0,15.15,1.91l29-53.27a8.2,8.2,0,0,1,7.2-4.25h37.34a8.13,8.13,0,0,1,8.18,8.06V313.05a8.13,8.13,0,0,1-8.18,8.06H215.66a8.12,8.12,0,0,1-8.18-7.95l-1.16-83.85c-.11-7.9-10.5-10.94-15-4.38L170.18,256a8.18,8.18,0,0,1-6.78,3.56H135.15a8.17,8.17,0,0,1-7.13-4.12L119.82,241c-4.17-7.36-15.56-4.26-15.31,4.17l2,67.64a8.12,8.12,0,0,1-8.18,8.3h-24A8.12,8.12,0,0,1,66.14,313.05Z"/><path class="cls-3" d="M.5,16.1V314.19a8.68,8.68,0,0,0,8.67,8.68h36a8.68,8.68,0,0,0,8.67-8.68V221.47a8.67,8.67,0,0,1,16-4.72l66.38,102.17a8.68,8.68,0,0,0,7.27,3.95h22.8a8.67,8.67,0,0,0,6.82-14c-32.17-41-121.75-158.33-100.71-168,25.54-11.74,83.75,15.83,96,.51S179.58,16.75,165.79,5C153.9-5.12,39.64,4.59,8.38,7.46A8.67,8.67,0,0,0,.5,16.1Z"/><path class="cls-4" d="M.5,16.1V314.19a8.68,8.68,0,0,0,8.67,8.68h36a8.68,8.68,0,0,0,8.67-8.68V221.47a8.67,8.67,0,0,1,16-4.72l66.38,102.17a8.68,8.68,0,0,0,7.27,3.95h22.8a8.67,8.67,0,0,0,6.82-14c-32.17-41-121.75-158.33-100.71-168,25.54-11.74,83.75,15.83,96,.51S179.58,16.75,165.79,5C153.9-5.12,39.64,4.59,8.38,7.46A8.67,8.67,0,0,0,.5,16.1Z"/><path class="cls-5" d="M11.65,17.44v298.1a8.68,8.68,0,0,0,8.68,8.67h36A8.68,8.68,0,0,0,65,315.54V222.81a8.67,8.67,0,0,1,15.94-4.72l66.39,102.17a8.65,8.65,0,0,0,7.27,3.95h22.79a8.67,8.67,0,0,0,6.83-14c-32.18-41-106.85-166-100.71-168s83.74,15.83,96,.51,11.23-124.6-2.56-136.34C165.06-3.78,50.8,5.93,19.53,8.8A8.67,8.67,0,0,0,11.65,17.44Z"/><path class="cls-3" d="M70.22,48.73h63.32c32.09,0-28.63,48.06-53.44,66.74a6.17,6.17,0,0,1-9.88-4.93Z"/><path class="cls-3" d="M66.14,44.72h63.32c32.09,0-28.64,48.06-53.45,66.74a6.17,6.17,0,0,1-9.87-4.94Z"/></g></g></svg>